<svg width="558" height="556" xmlns="http://www.w3.org/2000/svg" stroke="white" xml:space="preserve" version="1.1" fill="#1126db">
 <g>
  <title>Layer 1</title>
  <g stroke-width="2" id="SVGRepo_bgCarrier"/>
  <g stroke-linejoin="round" stroke-linecap="round" id="SVGRepo_tracerCarrier"/>
  <g stroke="null" stroke-width="52" id="SVGRepo_iconCarrier">
   <g stroke="null" id="svg_1">
    <g stroke="null" id="svg_2">
     <path stroke="#ffffff" fill="#ff0000" id="svg_3" d="m290.92662,277.99998l238.60472,-237.66158c2.41239,-2.40286 3.13681,-6.01453 1.8303,-9.15567c-1.2986,-3.13327 -4.385,-5.18273 -7.7926,-5.18273l-244.56703,0c-2.2434,0 -4.385,0.882 -5.9623,2.46094l-244.56703,243.60031c-3.29691,3.28486 -3.29691,8.59359 0,11.87747l244.56703,243.60031c1.5773,1.57894 3.7189,2.46094 5.9623,2.46094l244.56703,0c3.40661,0 6.494,-2.04947 7.7926,-5.18273c1.3075,-3.14114 0.5821,-6.7538 -1.8303,-9.15567l-238.60472,-237.66158l0,-0.00001z"/>
    </g>
   </g>
  </g>
 </g>

</svg>