<svg width="1631.76" height="517.06" xmlns="http://www.w3.org/2000/svg" data-bbox="0 0 1631.71 517.06" data-type="shape">
 <g>
  <title>Layer 1</title>
  <g id="svg_1">
   <path fill="#ffffff" d="m1510,137.41a119.48,119.48 0 0 0 -75.43,27l60.12,-88.74l-111.09,75.38l27.4,-131.54l-73.82,112.37l-25.36,-131.88l-25.16,131.87l-73.71,-112l27.2,131.23l-110.9,-75l60,88.07a119.78,119.78 0 0 0 -75.55,-26.71c-41.34,0 -77.15,20.59 -99.43,51.75c-22,-31.16 -58,-51.75 -99.3,-51.75a121.52,121.52 0 0 0 -99.24,51.75a121.49,121.49 0 0 0 -99.21,-51.75c-40.94,0 -77.15,20.59 -99.33,51.75a120.86,120.86 0 0 0 -99,-51.75c-41,0 -77.23,20.59 -99.53,51.75a120.74,120.74 0 0 0 -99,-51.75c-41,0 -77.12,20.59 -99.44,51.75a120.69,120.69 0 0 0 -99.12,-51.75c-66.67,-0.05 -121.1,54.41 -121.1,121.26s54.43,121.28 121.12,121.28a120.32,120.32 0 0 0 99.12,-51.62c22.33,31.23 58.49,51.62 99.45,51.62a120.37,120.37 0 0 0 99,-51.62c22.31,31.23 58.59,51.62 99.56,51.62a120.49,120.49 0 0 0 99,-51.62a121.26,121.26 0 0 0 198.54,0a121.26,121.26 0 0 0 198.54,0c22.28,31.26 58.09,51.62 99.43,51.62c28.3,0 54.33,-9.83 75.55,-25.91l-60,87.21l111.12,-75.21l-27.22,131.36l73.73,-112.09l25.06,131.7l25.5,-131.72l73.71,111.88l-27.42,-131.37l111.12,75.34l-59.15,-86.55a121.82,121.82 0 0 0 74.24,25.36c67.4,0 121.71,-54.42 121.71,-121.26s-54.27,-121.33 -121.71,-121.33zm0.76,225.84c-46,0 -78.72,-26.79 -121,-53.28l51.68,77.52l-79.84,-55.27l24.57,98.27l-55.27,-86l-18.36,98.26l-18.49,-98.26l-55.27,86l24.57,-98.27l-79.85,55.27l51.14,-76.71c-42.47,26.22 -76.33,52.46 -121.17,52.46a104.7,104.7 0 0 1 -99.32,-71.68a104.65,104.65 0 0 1 -198.64,0a104.65,104.65 0 0 1 -198.64,0a104.65,104.65 0 0 1 -198.64,0a104.65,104.65 0 0 1 -198.64,0a104.73,104.73 0 1 1 0,-66.1a104.65,104.65 0 0 1 198.64,0a104.65,104.65 0 0 1 198.64,0a104.65,104.65 0 0 1 198.64,0a104.65,104.65 0 0 1 198.64,0a104.7,104.7 0 0 1 99.32,-71.68c46.59,0 78.7,26.25 121.17,52.46l-51.14,-76.71l79.85,55.28l-24.57,-98.27l55.27,86l18.38,-98.27l18.57,98.28l55.27,-86l-24.57,98.27l79.84,-55.28l-50.64,76c42.19,-26 78.93,-51.72 119.94,-51.72a104.73,104.73 0 0 1 0,209.46l-0.08,-0.03z" id="svg_2"/>
   <path fill="#ffffff" d="m136.2,280.15a8.92,8.92 0 0 1 -2.94,6.85c-1.92,1.72 -4.39,2.16 -7.18,2.16a24,24 0 0 1 -18.81,-8.58c-5.25,-5.91 -7.81,-13.08 -7.81,-21.85s2.67,-16.52 8.4,-22.61c6.21,-6.63 14.41,-10 24.91,-10a55.78,55.78 0 0 1 15.21,2a63,63 0 0 1 10.67,3.53l3.81,-14.57c-9.32,-3.41 -14.58,-5.11 -15.65,-5.33c-6.91,-1.74 -15.26,-2.47 -25.82,-2.47c-16.12,0 -29.36,4.71 -39.86,14.36c-10.23,9.36 -15.13,21.05 -15.13,34.96c0,13.6 5.25,25.2 15.2,34.84a52.57,52.57 0 0 0 36.92,14.26a73.35,73.35 0 0 0 15.16,-1.85c12.42,-2.57 20.39,-3.85 23.52,-3.85a18.05,18.05 0 0 1 10.4,2.77l0,-44.54l-31,0l0,19.92z" id="svg_3"/>
   <path fill="#ffffff" d="m308.4,212.23l-43.31,92.56l18.71,0l6.92,-15l42.42,0l6.9,15l34.07,0l-43.5,-92.56l-22.21,0zm-9.81,60.86l13.24,-28.58l13.32,28.58l-26.56,0z" id="svg_4"/>
   <path fill="#ffffff" d="m517.91,252.84l-28.55,-40.62l-25.93,0l0,92.56l17.13,0l0,-51.62l20.14,29.33l17.21,0l23.56,-33.6l0,55.89l30.91,0l0,-92.56l-25.65,0l-28.82,40.62z" id="svg_5"/>
   <path fill="#ffffff" d="m677.93,304.78l76.22,0l0,-16.79l-44.95,0l0,-24.87l31.08,0l0,-16.93l-31.08,0l0,-17.13l44.95,0l0,-16.84l-76.22,0l0,92.56z" id="svg_6"/>
   <path fill="#ffffff" d="m924.15,245.87c-6.33,-2.34 -10.84,-4.62 -13.66,-6.65s-3.9,-4 -3.9,-5.65a5,5 0 0 1 2.39,-4.4a13.87,13.87 0 0 1 6.92,-1.63a57.86,57.86 0 0 1 16,2.27a70.33,70.33 0 0 1 14,6.76l8.35,-12.57a70.11,70.11 0 0 0 -18.25,-9.85a66.35,66.35 0 0 0 -24.85,-4.79q-16.81,0 -27.49,8.68c-6.69,5.34 -10.17,12 -10.17,19.93c0,6.43 2.28,11.89 7,16.89s11.62,9.48 21.33,13c14.46,5.57 21.74,10.1 21.74,13.61a6.14,6.14 0 0 1 -3.16,5.53c-2.36,1.72 -5.24,2.16 -9.21,2.16c-6.11,0 -11.68,-0.76 -16.67,-2.92a54.94,54.94 0 0 1 -14.66,-8.9l-9.34,11.38a61.93,61.93 0 0 0 18.58,13.18a59.16,59.16 0 0 0 26.15,5.8c13.07,0 23.57,-2.92 31.63,-8.9c7.49,-5.57 11.13,-12 11.13,-19.48a25.2,25.2 0 0 0 -7,-17.78c-5.43,-6.04 -14.22,-11.61 -26.86,-15.67z" id="svg_7"/>
   <path fill="#ffffff" d="m1157.51,221.11c-7.93,-6 -17.35,-8.88 -28.29,-8.88l-52.83,0l0,92.56l31.3,0l0,-30.85l21.53,0c10.94,0 20.36,-3.13 28.29,-9.21c7.72,-6 11.48,-13.38 11.48,-21.84s-3.76,-15.76 -11.48,-21.78zm-24.43,31.38a20.71,20.71 0 0 1 -13.05,4.11l-12.34,0l0,-27.54l12.31,0a22.34,22.34 0 0 1 13.05,4.18c3.55,2.78 5.36,6.19 5.36,9.66c0.02,3.95 -1.79,7.03 -5.34,9.58l0.01,0.01z" id="svg_8"/>
   <path fill="#ffffff" d="m1349.28,223.58c-9.75,-9.53 -21.94,-14.23 -36.65,-14.23c-14.22,0 -26.44,4.71 -36.61,14.23c-9.87,9.66 -14.9,21.35 -14.9,35s5,25.2 14.9,34.84a52.15,52.15 0 0 0 36.61,14.26c14.7,0 26.9,-4.72 36.65,-14.26c10.41,-9.64 15.33,-21.24 15.33,-34.84s-5.16,-25.34 -15.33,-35zm-23.56,56.78c-3.74,6.13 -7.95,8.81 -12.87,8.81s-9.4,-2.61 -13.16,-8.58a46.53,46.53 0 0 1 0,-43.73c4,-6.19 8.24,-9.33 13.16,-9.33s9.57,3.14 13.09,9c3.74,6.09 5.56,13.37 5.56,22c0,8.54 -1.81,15.95 -5.78,21.83z" id="svg_9"/>
   <path fill="#ffffff" d="m1464.79,229.06l30.32,0l0,75.72l30.68,0l0,-75.72l30.19,0l0,-16.84l-91.19,0l0,16.84z" id="svg_10"/>
  </g>
 </g>

</svg>